Coordinates
version=1
nRows=6
nColumns=36
inDegrees=yes

Units are S.I. units (second, meters, Newtons, ...)
If the header above contains a line with 'inDegrees', this indicates whether rotational values are in degrees (yes) or radians (no).

endheader
time	pelvis_tilt	pelvis_list	pelvis_rotation	pelvis_tx	pelvis_ty	pelvis_tz	hip_flexion_r	hip_adduction_r	hip_rotation_r	knee_angle_r	knee_angle_r_beta	ankle_angle_r	subtalar_angle_r	mtp_angle_r	hip_flexion_l	hip_adduction_l	hip_rotation_l	knee_angle_l	knee_angle_l_beta	ankle_angle_l	subtalar_angle_l	mtp_angle_l	lumbar_extension	lumbar_bending	lumbar_rotation	arm_flex_r	arm_add_r	arm_rot_r	elbow_flex_r	pro_sup_r	arm_flex_l	arm_add_l	arm_rot_l	elbow_flex_l	pro_sup_l
      8.90000000	      0.44284595	     -1.16820926	      3.67972346	      0.06764852	      0.78879346	     -0.15099622	     48.88016078	     -1.01325398	     -0.37724513	      8.68400363	      0.15156446	     -4.91638527	     -4.19004522	     -7.49999987	     43.20978913	      5.25517230	     -1.20096446	     72.57501763	      1.26667301	     27.34558042	    -12.00283459	     -7.49999987	    -25.98057305	      1.01544941	      3.27355487	     89.05584717	      4.48177246	     62.55170019	    128.58835684	     92.17606945	    112.00459574	      3.50980074	     79.29194173	    108.27454432	     72.06767144
      8.91666670	      0.10188888	     -1.20727232	      3.74519501	      0.06379442	      0.78386111	     -0.15148521	     49.50306953	     -1.00710509	     -0.02824423	      8.42990981	      0.14712968	     -4.97066251	     -4.27901474	     -7.49999987	     44.52880062	      5.41861325	     -1.03887856	     73.71126231	      1.28650422	     27.63692800	    -11.89869543	     -7.49999987	    -25.52491570	      0.82921438	      3.21000646	     88.61372487	      5.93061157	     64.90662098	    128.49680453	     90.89794296	    111.10485678	      2.84714107	     79.38463424	    107.82723250	     71.08685616
      8.93333330	     -0.76132584	     -1.47297602	      3.48642098	      0.06207469	      0.77654775	     -0.15077512	     50.95385786	     -0.66134036	      0.39295277	      8.92661886	      0.15579889	     -4.99818290	     -5.09621375	     -7.49999987	     46.21124406	      5.31369882	     -0.84547311	     75.15207060	      1.31165107	     27.85471871	    -12.25603892	     -7.49999987	    -25.26590787	      1.21918177	      3.17619726	     88.14449010	      6.29224089	     64.30847721	    127.33690577	     90.18322330	    111.09567746	      2.12531599	     79.11188332	    107.32135114	     70.22897732
      8.95000000	     -1.23770406	     -1.41879842	      3.57755228	      0.05993406	      0.77064232	     -0.15142199	     51.81470735	     -0.84777042	      0.27753440	      9.09963348	      0.15881856	     -4.90306447	     -5.48149305	     -7.49999987	     47.35052160	      5.58832122	     -0.90089342	     76.16017962	      1.32924589	     27.97536202	    -12.39803838	     -7.49999987	    -25.28307519	      1.23727198	      3.65369532	     88.13668028	      6.17900689	     63.79435790	    127.91522644	     89.34330444	    110.84925523	      2.51608126	     78.59491340	    107.73804673	     69.67864221
      8.96666670	     -1.76748933	     -1.20704949	      3.61385263	      0.05982182	      0.76800166	     -0.15163192	     52.26039948	     -1.08888488	      0.43187627	      8.68869182	      0.15164628	     -5.08845645	     -5.50585346	     -7.49999987	     48.33766583	      5.97281701	     -0.92751793	     76.79726129	      1.34036507	     28.26101842	    -12.17515421	     -7.49999987	    -25.10304805	      1.03787431	      4.24390839	     88.03687522	      5.59269988	     64.49433455	    128.38102499	     88.57992255	    110.05613415	      2.65689491	     78.56509296	    108.37594662	     69.04958386
      8.98333330	     -1.93430564	     -0.85221265	      3.86733292	      0.05655478	      0.76408737	     -0.15188259	     52.34794640	     -1.54195044	      0.41084398	      7.95194157	      0.13878756	     -5.07073094	     -5.00143102	     -7.49999987	     49.37405615	      6.55716031	     -1.04400786	     77.26310831	      1.34849563	     28.21517885	    -11.80661268	     -7.49999987	    -25.32114040	      0.64044897	      3.73501555	     87.35139713	      4.69651526	     63.51848326	    127.82388436	     87.92254128	    109.66861078	      2.56276203	     78.68960484	    108.78331541	     68.59437266
